<svg width="41" height="58" viewBox="0 0 41 58" version="1.1" xmlns="http://www.w3.org/2000/svg" xmlns:xlink="http://www.w3.org/1999/xlink">
<title>Vector</title>
<desc>Created using Figma</desc>
<g id="Canvas" transform="translate(-2291 473)">
<g id="Vector">
<use xlink:href="#path0_fill" transform="translate(2291 -473)" fill="#008489"/>
</g>
</g>
<defs>
<path id="path0_fill" d="M 32.8049 49.719L 1.49162e-06 49.719C 1.49162e-06 54.2968 3.66581 58 8.20326 58L 32.8049 58C 37.3342 58 41 54.2887 41 49.719L 41 15.6956C 41 15.5321 40.8697 15.3849 40.7067 15.3849L 33.0982 15.3849C 32.9352 15.3849 32.8049 15.5239 32.8049 15.6874L 32.8049 49.7108L 32.8049 49.719ZM 32.8049 0C 37.3342 0 41 3.71135 41 8.28922L 8.20326 8.28922L 8.20326 42.3126C 8.20326 42.4761 8.06477 42.6151 7.90185 42.6151L 0.301408 42.6151C 0.138483 42.6151 1.49162e-06 42.4761 1.49162e-06 42.3126L 1.49162e-06 8.28922C 1.49162e-06 3.71135 3.66581 0 8.20326 0L 32.8049 0Z"/>
</defs>
</svg>
